<svg width="128" height="128" viewBox="0 0 128 128" fill="none" xmlns="http://www.w3.org/2000/svg">
  <path fill-rule="evenodd" clip-rule="evenodd" d="M26.7279 11.9671C10.5432 23.5811 -6.10352e-05 42.5593 -6.10352e-05 64C-6.10352e-05 69.5942 0.717674 75.0207 2.06608 80.1925L42.0209 30.8524L26.7279 11.9671ZM7.01086 93.1544C17.6156 113.842 39.1544 128 63.9999 128C80.6228 128 95.7654 121.663 107.144 111.272L49.7415 40.3865L7.01086 93.1544ZM115.299 102.275L37.2198 5.85531C45.367 2.09667 54.4386 0 63.9999 0C99.3462 0 128 28.6538 128 64C128 78.3515 123.276 91.5997 115.299 102.275Z" fill="#0bda51"/>
</svg>
